<svg
   fill="white"
   viewBox="0 0 16 16">
  <path
     d="m 9,9.6209981 a 1,1 0 0 1 1,-1 h 2 a 1,1 0 0 1 1,1 v 2.9999999 a 1,1 0 0 1 -1,1 h -2 a 1,1 0 0 1 -1,-1 z m 3,0 h -2 v 2.9999999 h 2 z"
     />
  <path
     d="m 1.5,8.1209981 a 0.5,0.5 0 0 1 0.5,0.5 V 14.620998 H 3 V 9.6209981 a 1,1 0 0 1 1,-1 h 3 a 1,1 0 0 1 1,1 v 4.9999999 h 6 V 8.6209981 a 0.5,0.5 0 0 1 1,0 v 5.9999999 h 0.5 a 0.5,0.5 0 0 1 0,1 h -15 a 0.5,0.5 0 0 1 0,-1 H 1 V 8.6209981 a 0.5,0.5 0 0 1 0.5,-0.5 M 4,14.620998 H 7 V 9.6209981 H 4 Z"
     />
  <path
     d="m 2.97,0.97099815 a 1,1 0 0 1 0.76,-0.35 h 8.54 a 1,1 0 0 1 0.76,0.35 l 2.609,3.04399995 a 1.5,1.5 0 0 1 0.361,0.976 v 0.255 a 2.375,2.375 0 0 1 -4.25,1.458 2.37,2.37 0 0 1 -1.875,0.917 2.37,2.37 0 0 1 -1.875,-0.917 2.37,2.37 0 0 1 -1.875,0.917 2.37,2.37 0 0 1 -1.875,-0.917 2.375,2.375 0 0 1 -4.25,-1.458 v -0.255 a 1.5,1.5 0 0 1 0.361,-0.976 z"
     />
</svg>
